,
  Hottest scene tracker on the net !!!   http://www.scenetime.com
 
         Please seed back after your download is completed

           Credit goes  to all seeders and  http://www.scenetime.com
 



...................................NFO:.................................................                                             
                               
                                 
                                      
                                      
                                       
    CoaX!<CPH>                         
                               
                         
                            
          
    Team FiCO <Final Coalition> 2k8 Presents:    
    

Wilco.Ashes.Of.American.Flags.2009.RERiP.DVDRip.XviD-FiCO 
http://www.imdb.com/title/tt1425619/
Subtitles: None
Date: 2010.12

Director: Brendan Canty, Christopher Green
Genre: Documentary | Music
Plot: Chicago's alt-rock gods Wilco, fronted by the charismatic Jeff Tweedy, 
perform live in five classic U.S. concert venues during their 2008 tour. 
Between shows, as the band crisscrosses the country, the members reflect on 
their music and their lives. The performances unfold in Cain's Ballroom in 
Tulsa, Okla.; Tipitina's in New Orleans; the Mobile Civic Center in Alabama; 
the Ryman Auditorium in Nashville, Tenn.; and the 9:30 Club in Washington, D.C.

Cast
Credited cast:
Wilco 	Wilco 	... 	
Themselves
Full cast and crew  

Stats:
General
Format                           : AVI
Format/Info                      : Audio Video Interleave
File size                        : 698 MiB
Duration                         : 1h 26mn
Overall bit rate                 : 1 123 Kbps
Writing application              : VirtualDubMod 1.5.10.2 (build 2542/release)
Writing library                  : VirtualDubMod build 2542/release

Video
ID                               : 0
Format                           : MPEG-4 Visual
Format profile                   : Advanced Simple@L5
Format settings, BVOP            : Yes
Format settings, QPel            : No
Format settings, GMC             : No warppoints
Format settings, Matrix          : Default (H.263)
Codec ID                         : XVID
Codec ID/Hint                    : XviD
Duration                         : 1h 26mn
Bit rate                         : 958 Kbps
Width                            : 640 pixels
Height                           : 352 pixels
Display aspect ratio             : 16:9
Frame rate                       : 23.976 fps
Resolution                       : 8 bits
Colorimetry                      : 4:2:0
Scan type                        : Progressive
Bits/(Pixel*Frame)               : 0.177
Stream size                      : 595 MiB (85%)
Writing library                  : XviD 1.2.1 (UTC 2008-12-04)

Audio
ID                               : 1
Format                           : MPEG Audio
Format version                   : Version 1
Format profile                   : Layer 3
Mode                             : Joint stereo
Codec ID                         : 55
Codec ID/Hint                    : MP3
Duration                         : 1h 26mn
Bit rate mode                    : Variable
Bit rate                         : 153 Kbps
Minimum bit rate                 : 32.0 Kbps
Channel(s)                       : 2 channels
Sampling rate                    : 48.0 KHz
Stream size                      : 95.1 MiB (14%)
Alignment                        : Aligned on interleaves
Interleave, duration             : 24 ms (0.58 video frame)
Interleave, preload duration     : 308 ms
Writing library                  : LAME3.98r
Encoding settings                : -m j -V 4 -q 0 -lowpass 17.5 --vbr-new -b 32






Release notes:
enjoy!


                                                                     
                                                             
                                                               
                                                               
                       
      
              Greetz from Team FiCO:               
              
                                                             
                                                             
           BLooDWeiSeR,CULTXviD,SiCK,DoNE,LAP,TH30R1STS              
                                                                             
               WinBeta, DvF, WASTE, BERC, KALEVALA, Jiggly                   
                                                                             
                                                             
                                       
                             
                      
                  
           
            
                    
                  
                
                            
                                        
                                        
                                            
                                                    
                                                              
                      you know where to find us...                     
                        
   NFO By: CoaXCable/CoolPHat <#CPH>